<?xml version="1.0" encoding="utf-8"?>
<!-- Generator: Adobe Illustrator 26.0.3, SVG Export Plug-In . SVG Version: 6.00 Build 0)  -->
<svg version="1.1" id="图层_1" xmlns="http://www.w3.org/2000/svg" xmlns:xlink="http://www.w3.org/1999/xlink" x="0px" y="0px"
	 viewBox="0 0 2135.9 840.8" style="enable-background:new 0 0 2135.9 840.8;" xml:space="preserve">
<style type="text/css">
	.st0{fill:#2F54EB;}
</style>
<g id="图层_2_00000047747565661662245450000002917231827634029186_">
	<g id="图层_1-2">
		<path class="st0" d="M309.3,1.9L98.1,60.7v13.7c0,15-44.7,41.8-84.8,56.4L0,135.8v12.5v308.6c0,106.6,53.2,206.3,154,288.2
			c75.3,61.3,149.9,90.9,153,92.2l9,3.5l9-3.5c3.1-1.2,77.7-30.9,153-92.2c100.7-82,154-181.7,154-288.2V135.8l-13.3-4.9
			c-40.1-14.7-84.7-41.5-84.7-56.4V60.7L316,0L309.3,1.9z M316,39.7l177.4,49.4c13,33.8,67.2,59.9,95,71.4v296.4
			c0,96.9-46.8,184.4-139.2,259.9C393.5,762.2,337.3,789.5,316,799c-21.3-9.5-77.5-36.8-133.1-82.2
			c-92.4-75.5-139.2-163-139.2-259.9V160.5c27.8-11.5,82-37.7,95-71.4L316,39.7z"/>
		<rect x="758.3" y="202.2" class="st0" width="19" height="442.4"/>
		<path class="st0" d="M872,516.7c0.8-7.3,3-14.3,6.5-20.7c3.3-6.4,7.7-12.2,13-17c22.4,13.6,43.6,20.4,63.7,20.4
			c8.8,0,15.2-2,19.3-6c4-3.8,6.2-9.2,6.1-14.8c0-9.8-6.6-17.6-19.8-23.2l-37-15.7c-14.4-6.5-25.5-14.3-33.3-23.4
			c-7.7-9.1-11.6-20.7-11.6-34.6c-0.1-9.1,1.9-18.1,5.8-26.4c3.9-8,9.5-15.1,16.3-20.7c7.4-6.1,15.9-10.7,25-13.7
			c10.3-3.4,21.1-5,32-4.9c23.4,0,47.1,6,71,17.9c-1,16.1-6.7,28.7-17,37.7c-21.3-10.3-40.2-15.4-56.5-15.4
			c-8.4,0-14.7,1.9-18.8,5.6c-4.2,3.8-6.3,8.1-6.3,12.9c0,8.2,6.2,14.8,18.5,19.8l37.7,16c15.9,6.7,27.8,15.3,35.6,25.8
			c7.9,10.5,11.8,22.6,11.8,36.4c0.1,9.3-1.7,18.5-5.3,27c-3.6,8.2-9,15.4-15.9,21.2c-7,6-15.7,10.6-26.2,14
			c-10.5,3.4-22.7,5-36.7,5C922.7,540,896.7,532.2,872,516.7z M1141.1,468h-24.8v67.2c-8.3,1.4-16.7,2-25.1,1.9
			c-10.3,0-18.6-0.6-25.1-1.9V322.3l2.2-2.2c18.2-0.4,33.3-0.7,45.4-0.9s21.2-0.3,27.5-0.3c10.7-0.1,21.4,1.5,31.6,4.7
			c9,2.9,17.3,7.7,24.3,14.1c6.9,6.5,12.2,14.5,15.5,23.4c3.7,9.3,5.5,20.1,5.5,32.2c0,12.1-1.9,22.9-5.7,32.2
			c-3.5,8.9-8.8,16.8-15.7,23.4c-7,6.5-15.3,11.3-24.3,14.3C1162.3,466.5,1151.7,468.1,1141.1,468L1141.1,468z M1116.3,357.1v73.2
			c5.9-0.2,10.5-0.4,14-0.5c3.5-0.1,5.7-0.2,6.8-0.2c5.7,0,10.4-1,14.1-3c3.6-1.9,6.7-4.5,9.1-7.9c2.4-3.5,4.1-7.4,5-11.5
			c1.1-4.5,1.6-9.2,1.6-13.8c0-4.5-0.5-9.1-1.6-13.5c-0.9-4.1-2.6-8.1-4.9-11.6c-2.2-3.3-5.2-6.1-8.6-8c-3.9-2.1-8.2-3.1-12.6-3
			h-12.9L1116.3,357.1L1116.3,357.1z M1297.5,476.8c5.7,16.3,17.1,24.5,34.2,24.5c8.6,0,15.5-2.1,20.9-6.4c5.4-4.4,9.7-10,12.6-16.3
			c3.2-7,5.2-14.5,6.1-22.1c1-8,1.6-16.1,1.6-24.2c0-7.3-0.3-15.5-0.8-24.5c-0.4-8.6-2-17.1-4.6-25.3c-2.3-7.5-6.4-14.3-11.9-19.8
			c-5.4-5.3-13.4-8-23.9-8c-10,0-17.7,2.6-23.1,7.7c-5.4,5.3-9.5,11.8-11.9,19c-2.7,7.8-4.3,15.8-4.9,24c-0.6,8.5-0.9,16-0.9,22.5
			c-0.1,8.6,0.4,17.2,1.4,25.8C1293.3,461.4,1295.1,469.2,1297.5,476.8L1297.5,476.8z M1272.1,520.1c-22.4-18.6-33.6-49.3-33.6-92
			c0-18.4,2.1-34.6,6.4-48.5c4.3-13.9,10.5-25.6,18.5-35c8-9.3,18-16.7,29.4-21.4c11.5-4.8,24.5-7.2,38.9-7.2
			c14.4,0,27.5,2.4,39.1,7.2c11.4,4.7,21.6,12.1,29.5,21.5c8.1,9.5,14.2,21.2,18.5,35.2s6.4,30,6.4,48.2c0,18.2-2.1,34.3-6.4,48.2
			c-4.3,13.9-10.5,25.6-18.5,35c-8,9.4-18.1,16.7-29.5,21.3c-11.6,4.8-24.6,7.2-39.1,7.2C1307.9,539.9,1288,533.3,1272.1,520.1
			L1272.1,520.1z M1537.1,362.1l0.3,23.2v149.8c-8.4,1.4-16.9,2-25.4,1.9c-8.3,0.1-16.6-0.5-24.8-1.9v-173l-20.1,0.3h-32.3
			c-2.5-13.8-2.5-28,0-41.8h155.4c1.8,6.4,2.6,13.1,2.5,19.8c0,7.8-2.1,13.4-6.3,16.8c-4.2,3.4-10.9,5.2-20.1,5.2h-9.1l-19.8-0.3
			L1537.1,362.1z M1712.3,362.1l0.3,23.2v149.8c-8.4,1.4-16.9,2-25.4,1.9c-8.3,0.1-16.6-0.5-24.8-1.9v-173l-20.1,0.3h-32.3
			c-2.5-13.8-2.5-28,0-41.8h155.4c1.8,6.4,2.6,13.1,2.5,19.8c0,7.8-2.1,13.4-6.3,16.8c-4.2,3.4-10.9,5.2-20.1,5.2h-9.1l-19.8-0.3
			L1712.3,362.1z M1840.4,471.7l-0.3,22.6v0.3c9.6-0.4,17.4-0.6,23.2-0.6h72.8c0.1,6-0.2,12-0.9,17.9c-2.5,16.1-13.2,24.2-32,24.2
			h-83.5c-9,0-16.1-2.6-21.2-7.8s-7.7-12.3-7.7-21.3V323l2.2-2.2h135.3c1.3,6.5,1.9,13.1,1.9,19.8c-0.1,7.6-1.6,15.2-4.4,22.3h-85.7
			l0.3,22.6v22c5.4-0.2,12.6-0.3,21.3-0.3h48c2,6.5,2.9,13.3,2.8,20.1c0.1,7-0.9,14-2.8,20.7h-69.4v23.9L1840.4,471.7z M2124.9,387
			c0,6.7-1,13.3-3.1,19.6c-2,5.9-4.8,11.5-8.3,16.6c-3.4,4.9-7.5,9.2-12.2,12.9c-4.4,3.5-9.3,6.3-14.6,8.3
			c10.9,4,18.9,13.6,24.2,28.9l9.4,26.7c3.6,10.5,8.8,18.2,15.7,23.2c-3.1,4.2-7.8,7.7-14.1,10.5c-6.5,2.9-13.6,4.3-20.7,4.2
			c-7.5,0-13.4-2.1-17.6-6.4c-4.2-4.3-8.1-11.8-11.6-22.5l-11.3-33c-2.3-6.3-5.4-11.1-9.3-14.5c-3.9-3.4-9.7-5-17.4-5H2021v78.5
			c-8.3,1.4-16.7,2-25.1,1.9c-8.3,0.1-16.6-0.5-24.8-1.9V322.3l2.2-2.2c18.2-0.4,33.5-0.7,46-0.9s22.2-0.3,29.4-0.3
			c10.6-0.1,21.2,1.3,31.4,4.2c8.8,2.5,17,6.8,24,12.7c6.7,5.8,12,13.1,15.4,21.4C2123.1,365.7,2124.9,375.7,2124.9,387L2124.9,387z
			 M2021,356.5v61.5c9.4,0,17.5-0.2,24.2-0.5s12.1-1.6,16.2-3.8c4-2.1,7.2-5.3,9.3-9.3c2.1-4,3.1-9.8,3.1-17.3
			c0-20.3-9.8-30.5-29.5-30.5h-13L2021,356.5L2021,356.5z"/>
	</g>
</g>
</svg>
