<svg width="48" height="40" viewBox="0 0 48 40" fill="currentColor" xmlns="http://www.w3.org/2000/svg">
  <path fill-rule="evenodd" clip-rule="evenodd"
    d="M23.6894 0.0903901L13.898 2.88773V3.53949C13.898 4.25309 11.8256 5.52807 9.96657 6.22265L9.34998 6.46051V13H11.3759V7.63559C12.6648 7.08849 15.1775 5.84206 15.7802 4.23882L24 1.88868L32.2244 4.23882C32.8271 5.84681 35.3398 7.08849 36.6286 7.63559V13H38.65V6.46051L38.0334 6.2274C36.1743 5.52807 34.1066 4.25309 34.1066 3.54424V2.88773L24 0L23.6894 0.0903901ZM16.4895 35.4472C13.4786 32.9368 11.3837 30.0748 10.2744 27H12.3953C13.4282 29.5568 15.2437 31.9328 17.8294 34.1009C20.407 36.2607 23.0125 37.5595 24 38.0114C24.9875 37.5595 27.5929 36.2607 30.1752 34.1009C32.7609 31.9328 34.5763 29.5568 35.6093 27H37.7232C36.6126 30.0727 34.5173 32.9346 31.5104 35.4472C28.0195 38.3635 24.5609 39.7764 24.4172 39.8335L24 40L23.5827 39.8335L23.5604 39.8241C23.2281 39.6844 19.874 38.2745 16.4895 35.4472ZM1.73141 22.4314C1.6068 22.6601 1.52848 22.9102 1.5 23.171C2.37935 23.7248 3.30499 24.0035 4.27334 24C4.77176 24 5.20609 23.9428 5.5799 23.8213C5.95372 23.6998 6.26345 23.5355 6.51266 23.3211C6.75831 23.1139 6.95055 22.8566 7.07872 22.5636C7.20688 22.2599 7.27097 21.9312 7.26741 21.5989C7.26741 21.1059 7.12856 20.6736 6.84731 20.2984C6.56962 19.9232 6.14596 19.616 5.5799 19.3766L4.23774 18.8049C3.79984 18.6263 3.57911 18.3905 3.57911 18.0975C3.57911 17.926 3.65388 17.7723 3.8034 17.6366C3.94937 17.5044 4.17366 17.4365 4.47271 17.4365C5.05301 17.4365 5.72587 17.6187 6.48418 17.9867C6.85087 17.6651 7.0538 17.215 7.0894 16.6397C6.23853 16.2145 5.39478 16.0002 4.56171 16.0002C4.17366 15.9966 3.78916 16.0538 3.42247 16.1752C3.0985 16.2824 2.79589 16.4468 2.53244 16.6647C2.29035 16.8648 2.09098 17.1185 1.95214 17.4043C1.81329 17.7009 1.74209 18.0224 1.74565 18.3476C1.74565 18.8442 1.88449 19.2587 2.15862 19.5838C2.43631 19.909 2.83149 20.1876 3.34415 20.4199L4.66139 20.9808C5.13133 21.1809 5.3663 21.4596 5.3663 21.8098C5.36986 22.0098 5.29153 22.2028 5.14913 22.3385C5.00316 22.4815 4.77532 22.5529 4.46203 22.5529C3.74644 22.5529 2.99169 22.31 2.19422 21.824C2.00554 21.9955 1.84889 22.2028 1.73141 22.4314ZM10.1974 21.431H11.0803C11.4577 21.4346 11.835 21.3774 12.1946 21.2595C12.515 21.1523 12.8105 20.9808 13.0597 20.7486C13.3054 20.5128 13.4941 20.2305 13.6187 19.9125C13.754 19.5802 13.8216 19.1944 13.8216 18.762C13.8216 18.3297 13.7575 17.9438 13.6258 17.6116C13.5083 17.2936 13.3196 17.0077 13.074 16.7755C12.8248 16.5468 12.5293 16.3753 12.2089 16.2717C11.8457 16.1574 11.4648 16.1002 11.0839 16.1038C10.8596 16.1038 10.5356 16.1073 10.1048 16.1145C9.67405 16.1216 9.13647 16.1324 8.48853 16.1466L8.4102 16.2253V23.832C8.64161 23.8785 8.9371 23.8999 9.3038 23.8999C9.60285 23.9035 9.9019 23.8821 10.1974 23.832V21.431ZM10.1974 20.084V17.4686L10.5534 17.4758H11.0127C11.1693 17.4722 11.3224 17.5079 11.4612 17.583C11.5823 17.6509 11.6891 17.7509 11.7674 17.8688C11.8493 17.9939 11.9098 18.1368 11.9419 18.2833C11.981 18.4405 11.9988 18.6048 11.9988 18.7656C11.9988 18.93 11.981 19.0979 11.9419 19.2587C11.9098 19.4052 11.8493 19.5445 11.7638 19.6696C11.6784 19.791 11.568 19.8839 11.4399 19.9518C11.3081 20.0233 11.1408 20.059 10.9379 20.059C10.9148 20.059 10.8781 20.0603 10.8264 20.062C10.7903 20.0632 10.747 20.0647 10.6958 20.0662C10.628 20.0681 10.5486 20.0711 10.4564 20.0746C10.3792 20.0775 10.2931 20.0808 10.1974 20.084ZM17.8659 22.6208C17.2571 22.6208 16.8513 22.3278 16.6483 21.7454C16.5629 21.4739 16.4988 21.1952 16.4632 20.9201C16.4276 20.6128 16.4098 20.3055 16.4134 19.9983C16.4134 19.766 16.4241 19.4981 16.4454 19.1944C16.4668 18.9014 16.5237 18.6155 16.6199 18.3369C16.7053 18.0796 16.8513 17.8474 17.0435 17.658C17.2358 17.4758 17.5099 17.3829 17.8659 17.3829C18.2397 17.3829 18.5245 17.4794 18.7168 17.6687C18.9126 17.8652 19.0585 18.1082 19.1404 18.3762C19.233 18.6691 19.29 18.9728 19.3042 19.2801C19.322 19.6017 19.3327 19.8947 19.3327 20.1555C19.3327 20.4449 19.3113 20.7343 19.2757 21.0201C19.2437 21.2917 19.1725 21.5596 19.0585 21.8098C18.9553 22.0348 18.8022 22.2349 18.61 22.3921C18.4177 22.5458 18.1721 22.6208 17.8659 22.6208ZM14.5479 20.0054C14.5479 21.5311 14.9466 22.628 15.7441 23.2925C16.3101 23.7641 17.0186 24 17.8659 23.9964C18.3821 23.9964 18.8449 23.9106 19.2579 23.7391C19.6638 23.5748 20.0233 23.314 20.3081 22.9781C20.593 22.6422 20.8137 22.2242 20.9668 21.7276C21.1199 21.2309 21.1946 20.6557 21.1946 20.0054C21.1946 19.3551 21.1199 18.7835 20.9668 18.2833C20.8137 17.7831 20.5965 17.365 20.3081 17.0256C20.0269 16.6897 19.6638 16.4253 19.2579 16.2574C18.8449 16.0859 18.3786 16.0002 17.8659 16.0002C17.3532 16.0002 16.8904 16.0859 16.481 16.2574C16.0752 16.4253 15.7191 16.6897 15.4343 17.022C15.1495 17.3579 14.9288 17.7759 14.7757 18.2725C14.6226 18.7692 14.5479 19.348 14.5479 20.0054ZM25.1891 18.4762L25.1784 17.6473H25.1891L25.894 17.658H26.218C26.5455 17.658 26.784 17.5937 26.9335 17.4722C27.0831 17.3507 27.1578 17.1506 27.1578 16.872C27.1614 16.6326 27.1329 16.3932 27.0688 16.1645H21.5364C21.4474 16.6576 21.4474 17.1649 21.5364 17.658H22.6863L23.4019 17.6473V23.8285C23.6938 23.8785 23.9893 23.8999 24.2848 23.8964C24.5874 23.8999 24.89 23.8785 25.1891 23.8285V18.4762ZM31.4264 18.4762L31.4157 17.6473H31.4264L32.1313 17.658H32.4553C32.7828 17.658 33.0214 17.5937 33.1709 17.4722C33.3204 17.3507 33.3952 17.1506 33.3952 16.872C33.3987 16.6326 33.3703 16.3932 33.3062 16.1645H27.7737C27.6847 16.6576 27.6847 17.1649 27.7737 17.658H28.9237L29.6392 17.6473V23.8285C29.9312 23.8785 30.2267 23.8999 30.5222 23.8964C30.8248 23.8999 31.1274 23.8785 31.4264 23.8285V18.4762ZM35.9656 22.3707L35.9763 21.5632L35.9727 21.5704V20.7164H38.4434C38.5111 20.477 38.5467 20.2269 38.5431 19.9768C38.5467 19.7339 38.5146 19.4909 38.4434 19.2587H36.7346C36.4248 19.2587 36.1685 19.2622 35.9763 19.2694V18.4833L35.9656 17.6759H39.0166C39.1163 17.4222 39.1697 17.1506 39.1733 16.8791C39.1733 16.6397 39.1519 16.4039 39.1056 16.1717H34.2888L34.2104 16.2503V22.8245C34.2104 23.146 34.303 23.3997 34.4846 23.5855C34.6661 23.7713 34.9189 23.8642 35.2393 23.8642H38.212C38.8813 23.8642 39.2623 23.5748 39.3513 22.9995C39.3762 22.7887 39.3869 22.5744 39.3833 22.36H36.7915C36.585 22.36 36.3074 22.3671 35.9656 22.3814V22.3707ZM45.9945 19.2372C46.0692 19.0121 46.1048 18.7763 46.1048 18.5369C46.1048 18.1332 46.0407 17.7759 45.9126 17.4722C45.7915 17.1757 45.6029 16.9148 45.3643 16.7076C45.1151 16.4968 44.8232 16.3432 44.5099 16.2538C44.1468 16.1502 43.7694 16.1002 43.392 16.1038C43.1357 16.1038 42.7903 16.1073 42.3453 16.1145C41.9003 16.1216 41.3556 16.1324 40.7077 16.1466L40.6294 16.2253V23.8249C40.9213 23.8749 41.2168 23.8964 41.5123 23.8928C41.8113 23.8964 42.1104 23.8749 42.4059 23.8249V21.0201H42.8687C43.1428 21.0201 43.3493 21.0773 43.4881 21.1988C43.627 21.3203 43.7373 21.4918 43.8192 21.7169L44.2215 22.8959C44.3461 23.2782 44.485 23.5462 44.6345 23.6998C44.784 23.8535 44.9941 23.9285 45.2611 23.9285C45.5138 23.9321 45.7666 23.8821 45.998 23.7784C46.2223 23.6784 46.3896 23.5533 46.5 23.4033C46.2544 23.2246 46.0692 22.9495 45.9411 22.5744L45.6064 21.6204C45.4177 21.0737 45.1329 20.7307 44.7449 20.5878C44.9335 20.5163 45.108 20.4163 45.2646 20.2913C45.432 20.1591 45.5779 20.0054 45.699 19.8303C45.8236 19.6481 45.9233 19.448 45.9945 19.2372ZM42.4059 19.6446V17.4472L42.7725 17.4508H43.2354C43.9367 17.4508 44.2856 17.8152 44.2856 18.5405C44.2856 18.8085 44.25 19.0157 44.1752 19.1586C44.1005 19.3016 43.9865 19.4159 43.8441 19.4909C43.6982 19.5695 43.5059 19.616 43.2674 19.6267C43.0289 19.6374 42.7405 19.6446 42.4059 19.6446Z"
    fill="currentColor" />
</svg>
